<svg width="16" height="16" viewBox="0 0 16 16" fill="none" xmlns="http://www.w3.org/2000/svg">
<path d="M5.07206 7.61051H10.5255C10.9022 7.61051 11.2079 7.32702 11.2079 6.97692L9.8437 3.4892C9.8437 3.13907 9.53859 2.85431 9.16247 2.85431H6.43553C6.05868 2.85431 5.75372 3.13907 5.75372 3.4892L4.39039 6.97692C4.39039 7.32702 4.69521 7.61051 5.07206 7.61051ZM5.55325 8.34239H2.82645C2.4496 8.34239 2.14466 8.62614 2.14466 8.97624L0.781616 12.4647C0.781616 12.8151 1.08616 13.0988 1.46298 13.0988H6.91686C7.29301 13.0988 7.59837 12.8151 7.59837 12.4647L6.2349 8.97624C6.2349 8.62611 5.9301 8.34239 5.55325 8.34239ZM15.2183 12.4647L13.855 8.97624C13.855 8.62639 13.5491 8.34265 13.1732 8.34265H10.4454C10.0698 8.34265 9.76364 8.62639 9.76364 8.97624L8.40028 12.4647C8.40028 12.8151 8.70511 13.0986 9.0821 13.0986H14.5365C14.9124 13.0986 15.2183 12.8151 15.2183 12.4647Z" fill="#B1BCC6"/>
</svg>
