<svg width="144" height="19" viewBox="0 0 144 19" fill="none" xmlns="http://www.w3.org/2000/svg">
<path d="M60.7925 17.3467V17.9057H53.2183V17.3467H53.535C53.8269 17.3467 54.0629 17.1596 54.0629 16.9281C54.0629 16.8419 54.0288 16.7606 53.9729 16.6941L53.2183 15.8421L52.6965 15.2535L52.0755 14.5541L48.7216 10.7715L46.8707 8.68568L46.2496 7.98629L46.2372 7.97152L46.2217 7.95428V7.94935L46.2092 7.9395L46.1999 7.92719C46.1502 7.86563 46.1223 7.78928 46.1223 7.71048C46.1223 7.47899 46.3583 7.29183 46.6502 7.29183H50.0507C50.2339 7.29183 50.3923 7.36571 50.4886 7.47653L50.942 7.98629L51.563 8.68568H51.6158C52.2152 8.68568 52.7711 8.52807 53.2183 8.25965C53.3176 8.20054 53.4139 8.13651 53.5009 8.0651C53.5319 8.04047 53.563 8.01338 53.594 7.98629C53.8238 7.78682 54.0039 7.55041 54.1219 7.29183C54.2244 7.06774 54.2803 6.82394 54.2803 6.57028C54.2803 5.87829 53.8642 5.26509 53.2183 4.88092C52.9046 4.69376 52.5351 4.56078 52.1345 4.49675C51.9668 4.47213 51.7929 4.45735 51.6158 4.45735H43.7218V16.9281C43.7218 17.1596 43.9578 17.3467 44.2497 17.3467H44.7776V17.9057H38.2593V17.3467H38.7872C39.0791 17.3467 39.3151 17.1596 39.3151 16.9281V2.82463C39.3151 2.59315 39.0791 2.40599 38.7872 2.40599H38.2593V1.84697H53.0537C53.1096 1.84697 53.1655 1.84697 53.2183 1.84943C53.5847 1.85682 53.9387 1.89376 54.2803 1.95533C54.8145 2.04644 55.3175 2.20159 55.7803 2.40599C56.8454 2.87388 57.6994 3.60775 58.1932 4.49675C58.5069 5.04838 58.6808 5.66404 58.6808 6.30925C58.6808 6.64663 58.6342 6.97662 58.541 7.29183C58.4758 7.53071 58.3826 7.7622 58.2677 7.98629C58.1435 8.23256 57.9913 8.46651 57.8112 8.68568C57.5907 8.96888 57.3268 9.22992 57.0318 9.46387C56.2896 10.0524 55.3424 10.4785 54.2803 10.6632C53.9977 10.7149 53.7058 10.7494 53.4046 10.7641L53.4108 10.7715L54.2803 11.7516L56.7647 14.5541L57.3858 15.2535L58.6808 16.7138L58.9106 16.9749L58.9416 17.0094C59.1186 17.2064 59.4074 17.3369 59.7366 17.3443L60.7925 17.3467Z" fill="#1B222F"/>
<path d="M82.9654 13.1824C82.9716 13.2465 82.9747 13.3105 82.9747 13.3745V13.8917C82.9747 14.1182 82.9499 14.3399 82.9033 14.5541C82.8567 14.7955 82.7791 15.0294 82.6735 15.2535C82.4219 15.815 82.0151 16.3174 81.4934 16.7286C81.1922 16.9675 80.8537 17.1768 80.4872 17.3467C80.2108 17.4773 79.9189 17.5881 79.6146 17.6743C79.2823 17.7678 78.9376 17.8343 78.5774 17.8713C78.36 17.8934 78.1395 17.9057 77.9128 17.9057H62.5532V17.3467H63.0812C63.3731 17.3467 63.6091 17.1596 63.6091 16.9281V2.82463C63.6091 2.59315 63.3731 2.40599 63.0812 2.40599H62.5532V1.84697H77.9128C78.1395 1.84697 78.36 1.85928 78.5774 1.88145C79.2668 1.95286 79.9127 2.1351 80.4872 2.40599C81.4903 2.87388 82.2729 3.61267 82.6735 4.49675C82.8691 4.92279 82.9747 5.38084 82.9747 5.86105C82.9747 6.36589 82.8567 6.84856 82.6424 7.29183C82.5275 7.53563 82.3816 7.76712 82.2077 7.98629C82.0089 8.23994 81.776 8.47389 81.512 8.68568L81.4934 8.70046C81.2667 8.88023 81.0183 9.04276 80.7543 9.18559C80.5121 9.01075 80.2543 8.84329 79.981 8.68568C79.5494 8.43449 79.0805 8.21039 78.5774 8.01585C78.5525 8.00353 78.5277 7.99368 78.5028 7.98629C78.2171 7.87301 77.9221 7.77205 77.6147 7.68339C77.7296 7.62183 77.8352 7.55287 77.9314 7.47653C78.0029 7.41989 78.0712 7.35586 78.1302 7.29183C78.4097 6.99878 78.5774 6.63678 78.5774 6.24276C78.5774 5.27741 77.5898 4.49675 76.3756 4.49675H68.0188V14.5541H76.3756C76.5247 14.5541 76.6737 14.5418 76.8166 14.5196H76.8197C77.2482 14.4482 77.6333 14.2808 77.9314 14.0419C78.3289 13.7267 78.5774 13.2908 78.5774 12.8081C78.5774 11.8452 77.5898 11.0621 76.3756 11.0621H73.7515L73.4906 10.7691L72.7019 9.87759L71.646 8.68568L71.2237 8.21039C72.0466 8.0651 72.9192 7.98629 73.826 7.98629H73.8322C75.4688 7.98629 77.0029 8.23994 78.332 8.68568C78.4128 8.71277 78.4966 8.73986 78.5774 8.76941C79.1364 8.96888 79.6581 9.20529 80.1301 9.47126C80.804 9.84804 81.3816 10.2864 81.8319 10.7691C82.4002 11.3699 82.776 12.0398 82.9126 12.7539C82.9405 12.8943 82.9592 13.0347 82.9654 13.1775V13.1824Z" fill="#1B222F"/>
<path d="M94.6015 17.9057H92.3935C92.0053 17.9057 91.6265 17.8787 91.2569 17.8269C90.8936 17.7777 90.5396 17.7038 90.2011 17.6078C89.934 17.5364 89.6763 17.4477 89.4278 17.3467C88.2633 16.8838 87.2944 16.1524 86.6547 15.2535C86.4901 15.0319 86.3503 14.7979 86.2323 14.5541C85.9466 13.9705 85.7913 13.3351 85.7913 12.6702V2.82463C85.7913 2.59315 85.5553 2.40599 85.2634 2.40599H84.7355V1.84697H91.2569V2.40599H90.729C90.4371 2.40599 90.2011 2.59315 90.2011 2.82463V14.5541H90.2073C90.2166 14.793 90.2601 15.0294 90.3315 15.2535C90.4961 15.7879 90.8191 16.2755 91.2569 16.6818C91.5302 16.9379 91.8532 17.1645 92.2134 17.3467C92.6327 17.5634 93.1016 17.7235 93.6016 17.8146C93.6016 17.8171 93.6047 17.8146 93.6047 17.8146C93.9245 17.8737 94.2599 17.9057 94.6015 17.9057Z" fill="#1B222F"/>
<path d="M107.321 1.84697V2.40599H106.794C106.502 2.40599 106.266 2.59315 106.266 2.82463V12.6702C106.266 13.3351 106.11 13.9705 105.825 14.5541C105.707 14.7979 105.567 15.0319 105.402 15.2535C104.763 16.1524 103.794 16.8838 102.626 17.3467C102.378 17.4477 102.12 17.5364 101.856 17.6078C101.517 17.7038 101.163 17.7777 100.8 17.8269C100.43 17.8787 100.052 17.9057 99.6634 17.9057H95.6574C95.4804 17.9057 95.3065 17.8984 95.1326 17.8811H95.1295C94.8034 17.8491 94.4897 17.7925 94.1916 17.7063C93.8655 17.6152 93.5581 17.4945 93.2724 17.3467C92.3439 16.8739 91.6576 16.1277 91.3874 15.2535C91.316 15.0294 91.2725 14.793 91.2632 14.5541C91.257 14.5073 91.257 14.463 91.257 14.4162C91.257 14.3251 91.2601 14.234 91.2725 14.1429C91.7104 14.4014 92.2538 14.5541 92.8407 14.5541H99.2162C99.5113 14.5541 99.797 14.5147 100.061 14.4433C100.331 14.3719 100.58 14.266 100.8 14.133C101.443 13.7513 101.856 13.143 101.856 12.4584V2.82463C101.856 2.59315 101.62 2.40599 101.328 2.40599H100.8V1.84697H107.321Z" fill="#1B222F"/>
<path d="M118.951 17.9057H109.082V17.3467H109.61C109.902 17.3467 110.138 17.1596 110.138 16.9281V2.82463C110.138 2.59315 109.902 2.40599 109.61 2.40599H109.082V1.84697H115.598V2.40599H115.07C114.778 2.40599 114.542 2.59315 114.542 2.82463V14.5541H114.554C114.563 14.793 114.607 15.0294 114.678 15.2535C114.843 15.7879 115.163 16.273 115.598 16.6769C115.874 16.9355 116.2 17.162 116.563 17.3467C117.25 17.7014 118.069 17.9057 118.951 17.9057Z" fill="#1B222F"/>
<path d="M125.662 14.5541V17.9057H120.007C119.83 17.9057 119.653 17.8984 119.482 17.8811H119.479C118.799 17.8171 118.166 17.6299 117.619 17.3467C116.694 16.8739 116.004 16.1277 115.737 15.2535H124.277C124.752 15.2436 125.134 14.9334 125.134 14.5566L125.662 14.5541Z" fill="#1B222F"/>
<path d="M137.283 17.9057H127.423V17.3467H127.951C128.243 17.3467 128.479 17.1596 128.479 16.9281V2.82463C128.479 2.59315 128.243 2.40599 127.951 2.40599H127.423V1.84697H133.938V2.40599H133.41C133.119 2.40599 132.882 2.59315 132.882 2.82463V14.5541H132.889C132.898 14.793 132.938 15.0294 133.01 15.2535C133.178 15.7904 133.5 16.278 133.938 16.6843C134.215 16.9404 134.538 17.1645 134.895 17.3467C135.581 17.7014 136.404 17.9057 137.283 17.9057Z" fill="#1B222F"/>
<path d="M144 14.5541V17.9057H138.339C138.162 17.9057 137.985 17.8984 137.814 17.8811H137.811C137.131 17.8171 136.497 17.6299 135.951 17.3467C135.022 16.8714 134.336 16.1277 134.066 15.2535H142.612C143.062 15.2461 143.426 14.9728 143.472 14.628C143.472 14.6034 143.475 14.5812 143.475 14.5566L144 14.5541Z" fill="#1B222F"/>
<path d="M29.4366 13.4336C29.4428 13.5124 29.4459 13.5912 29.4459 13.67V14.2832C29.4459 14.4802 29.4304 14.6699 29.4025 14.8595C29.39 14.9309 29.3776 14.9998 29.3621 15.0688C29.359 15.0811 29.3559 15.0959 29.3528 15.1082C29.3279 15.2387 29.2938 15.3668 29.2534 15.4924C29.2317 15.5613 29.2068 15.6303 29.1789 15.6968C29.1509 15.7657 29.1199 15.8322 29.0888 15.8987C29.0515 15.98 29.0112 16.0637 28.9708 16.145C28.9273 16.2262 28.8838 16.305 28.8342 16.3838C28.6168 16.7335 28.3466 17.0611 28.0298 17.3566C27.9771 17.4083 27.9212 17.4575 27.8622 17.5068C27.8031 17.5561 27.7472 17.6053 27.6851 17.6521C27.4926 17.8072 27.2876 17.9476 27.0672 18.0781C26.9864 18.1298 26.9026 18.1766 26.8156 18.2234C26.7131 18.2776 26.6075 18.3293 26.4989 18.381C26.4958 18.381 26.4957 18.3835 26.4926 18.3835C26.4399 18.4081 26.3871 18.4327 26.3343 18.4549C26.2939 18.4746 26.2535 18.4919 26.2132 18.5091C26.151 18.5337 26.0858 18.5583 26.0237 18.583C25.9865 18.5977 25.9492 18.6101 25.9119 18.6248C25.766 18.6765 25.6138 18.7258 25.4585 18.7701C25.4088 18.7849 25.3592 18.7972 25.3095 18.8095C25.2629 18.8218 25.2132 18.8342 25.1604 18.8465C25.1014 18.8612 25.0424 18.8736 24.9834 18.8859C24.9337 18.8982 24.8871 18.9056 24.8374 18.9154L24.6232 18.6741L24.6169 18.6692L24.3623 18.381L24.2257 18.2259L19.0054 12.3402L17.9744 11.1754C18.0334 11.1754 18.0924 11.168 18.1514 11.1631C18.1607 11.1631 18.1731 11.1606 18.1824 11.1606C18.4619 11.1409 18.7352 11.104 19.0054 11.0547C20.2631 10.8355 21.3873 10.3307 22.2661 9.63133C22.5736 9.38999 22.853 9.12156 23.0891 8.83344C23.1294 8.79157 23.1605 8.75217 23.1947 8.7103C23.1947 8.7103 23.1946 8.70784 23.1978 8.70784C23.2785 8.60687 23.353 8.50344 23.4213 8.39755C23.4741 8.32367 23.5238 8.24487 23.5704 8.16853C23.5984 8.11927 23.6294 8.07002 23.6574 8.01831C23.6822 7.97398 23.7071 7.92719 23.7288 7.88286C23.7971 7.74988 23.8592 7.61444 23.9151 7.47653C23.94 7.40758 23.9679 7.33862 23.9896 7.26967C24.0176 7.19825 24.0393 7.1293 24.0549 7.05542C24.0859 6.96184 24.1108 6.86826 24.1263 6.77222C24.1511 6.67618 24.1698 6.58013 24.1791 6.48409C24.2101 6.28462 24.2257 6.08268 24.2257 5.87829C24.2257 5.09763 24.0114 4.35885 23.6294 3.69147C23.5704 3.59051 23.5083 3.48954 23.44 3.39103C23.3903 3.31469 23.3375 3.24081 23.2816 3.1694C23.2692 3.1497 23.2537 3.13246 23.2381 3.11522C23.1915 3.05119 23.1388 2.98716 23.086 2.9256C23.0735 2.91082 23.058 2.89358 23.0456 2.87881C22.9804 2.80247 22.9121 2.72859 22.8406 2.65471L22.8313 2.64732C22.7785 2.59314 22.7226 2.5365 22.6636 2.48479C22.5673 2.39121 22.4649 2.30255 22.3593 2.21636C22.3251 2.18927 22.2941 2.16465 22.263 2.14002C22.232 2.11293 22.1978 2.08831 22.1636 2.06368C22.1512 2.05137 22.1357 2.04152 22.1202 2.0292C22.0612 1.98488 21.999 1.94055 21.9369 1.90115C21.9121 1.88145 21.8841 1.86174 21.8562 1.84451C21.8003 1.80264 21.7413 1.7657 21.6823 1.73369C21.645 1.70906 21.6078 1.6869 21.5705 1.66473C21.5177 1.63026 21.4649 1.60071 21.409 1.57115C21.3842 1.55638 21.3593 1.54407 21.3345 1.52929C21.173 1.43817 21.0053 1.35691 20.8345 1.28056C20.7475 1.24363 20.6637 1.20669 20.5736 1.17221C20.5705 1.16975 20.5674 1.16975 20.5643 1.16975C20.5581 1.16482 20.5519 1.16236 20.5457 1.1599C20.496 1.13773 20.4432 1.11803 20.3935 1.10326C20.3842 1.09833 20.378 1.09587 20.3687 1.09341C20.3314 1.07617 20.291 1.06139 20.2507 1.05154C20.2196 1.03677 20.1917 1.02691 20.1606 1.01953C20.1078 0.999826 20.055 0.980125 19.9991 0.967812C19.9774 0.960424 19.9588 0.953036 19.937 0.945648C19.9308 0.945648 19.9246 0.943185 19.9184 0.940723C19.9091 0.935797 19.8967 0.933335 19.8873 0.933335C19.8811 0.92841 19.8749 0.925947 19.8687 0.925947C19.819 0.911171 19.7631 0.893933 19.7103 0.884082C19.7041 0.88162 19.701 0.88162 19.6948 0.879157C19.6731 0.871769 19.6482 0.864381 19.6234 0.859456C19.6016 0.852068 19.5799 0.847143 19.5582 0.84468C19.5488 0.84468 19.5426 0.842218 19.5333 0.839755C19.5023 0.829905 19.4712 0.822517 19.4402 0.815129C19.4029 0.807741 19.3656 0.79789 19.3253 0.790503C19.2197 0.765876 19.1141 0.743713 19.0054 0.726474C18.9029 0.704311 18.8004 0.689535 18.6948 0.677222C18.5924 0.659983 18.4868 0.64767 18.3812 0.640282C18.3005 0.630432 18.2166 0.625507 18.1328 0.618119C18.08 0.613194 18.0272 0.610731 17.9744 0.610731C17.9247 0.605806 17.875 0.605806 17.8253 0.603343C17.7477 0.603343 17.6669 0.598418 17.5862 0.598418H8.5959L1.77322 0.595955V18.9844H0V18.3835H0.726677C0.726677 18.3835 0.757731 18.3835 0.770153 18.381C0.78568 18.381 0.798102 18.3786 0.813629 18.3786C0.81984 18.3786 0.829157 18.3786 0.835368 18.3736C0.850895 18.3736 0.863317 18.3687 0.875739 18.3663C0.878844 18.3663 0.885055 18.3638 0.88816 18.3613C0.903688 18.3589 0.91611 18.3564 0.931637 18.349C0.95648 18.3392 0.981324 18.3318 1.00306 18.317C1.00617 18.3195 1.00927 18.317 1.00927 18.317C1.04033 18.3047 1.06828 18.2875 1.09312 18.2653C1.11796 18.2481 1.14281 18.2259 1.16144 18.2013C1.17697 18.1865 1.18628 18.1717 1.1956 18.1545C1.20181 18.1471 1.20492 18.1397 1.20802 18.1323C1.23597 18.0831 1.2515 18.0264 1.2515 17.9698V1.01214C1.2515 0.999826 1.24839 0.987513 1.24839 0.977662C1.24839 0.960424 1.24529 0.943185 1.23597 0.925947C1.23287 0.901321 1.22355 0.874232 1.20802 0.852068C1.20492 0.849606 1.20492 0.847143 1.20492 0.84468C1.20181 0.839755 1.20181 0.83483 1.1956 0.832367C1.18939 0.820054 1.18007 0.807741 1.17076 0.795428C1.15212 0.765876 1.12728 0.738787 1.09623 0.721549C1.0838 0.709236 1.07138 0.701848 1.05896 0.69446C1.04654 0.68461 1.03412 0.677222 1.01859 0.669834C1.01548 0.669834 1.01548 0.667371 1.01238 0.667371C1.00617 0.662446 0.999957 0.662446 0.99064 0.657521C0.987535 0.657521 0.98443 0.657521 0.981324 0.655058C0.944059 0.630432 0.897477 0.618119 0.854 0.610731C0.835368 0.603343 0.816735 0.60088 0.798102 0.60088C0.776364 0.598418 0.75152 0.595955 0.729782 0.595955H0V0H23.4431C23.5394 0 23.6356 0.00246262 23.7288 0.00492525C23.8313 0.0098505 23.9337 0.0147758 24.0331 0.0221636C24.0704 0.0246262 24.1077 0.0270889 24.1449 0.0320141C24.1729 0.0344767 24.1977 0.0369394 24.2257 0.039402H24.2288C24.3312 0.0492525 24.4337 0.0615656 24.5331 0.0763414C24.7163 0.100968 24.8933 0.135444 25.0672 0.174846C25.1573 0.19701 25.2474 0.216711 25.3374 0.241337C25.4275 0.265963 25.5144 0.29059 25.6014 0.317679C25.679 0.339842 25.7598 0.366931 25.8343 0.39402C25.8498 0.396483 25.8653 0.401408 25.8809 0.408796C25.9585 0.435885 26.0361 0.465436 26.1107 0.494988C26.1914 0.529464 26.2722 0.561478 26.3498 0.595955C26.3529 0.595955 26.3529 0.598418 26.356 0.598418H26.3591C26.3808 0.608268 26.4057 0.618119 26.4274 0.630432C26.4399 0.63782 26.4492 0.642745 26.4616 0.645208C26.4709 0.652596 26.4833 0.657521 26.4957 0.662446C26.5672 0.69446 26.6355 0.728937 26.7038 0.765876C26.7256 0.775727 26.7442 0.785577 26.7628 0.795428C26.797 0.812666 26.8311 0.829905 26.8653 0.849606C26.9181 0.879157 26.9709 0.908709 27.0206 0.93826C27.1044 0.987513 27.1883 1.03923 27.269 1.09341C27.2721 1.09341 27.2783 1.09833 27.2814 1.10326C27.3591 1.15251 27.4336 1.20422 27.505 1.2584C27.592 1.32243 27.6789 1.38892 27.7628 1.45787C27.7628 1.46034 27.769 1.4628 27.7721 1.46526L27.8839 1.5613C27.9243 1.59578 27.9646 1.63272 28.0019 1.6672C28.0826 1.74108 28.1572 1.81495 28.2286 1.88883C28.3 1.96517 28.3683 2.04152 28.4367 2.12032C28.4988 2.19174 28.5578 2.26561 28.6137 2.34196C28.6199 2.35427 28.6292 2.36412 28.6385 2.37643C28.6944 2.45524 28.7503 2.53404 28.8 2.61284C28.8497 2.69165 28.8963 2.77045 28.9397 2.84926C28.9677 2.89605 28.9925 2.94037 29.0174 2.98716C29.0236 2.99701 29.0267 3.0044 29.0298 3.01425C29.0515 3.05612 29.0702 3.09798 29.0888 3.13985C29.1012 3.16694 29.1136 3.19649 29.1261 3.22358C29.1509 3.28022 29.1727 3.33439 29.1944 3.39103C29.2037 3.40581 29.2068 3.42305 29.213 3.44029C29.2286 3.48215 29.2441 3.52402 29.2565 3.56588C29.2689 3.60775 29.2813 3.64961 29.2938 3.69147C29.3497 3.88602 29.39 4.08303 29.418 4.2825C29.4242 4.349 29.4304 4.41795 29.4366 4.4869C29.4428 4.57802 29.4459 4.6716 29.4459 4.76272C29.4459 4.85383 29.4428 4.94495 29.4366 5.03607C29.4273 5.13211 29.418 5.22815 29.4056 5.3242C29.3931 5.39315 29.3807 5.45964 29.3683 5.52859C29.3186 5.77978 29.241 6.02112 29.1416 6.25753C29.1168 6.32402 29.0857 6.39051 29.0546 6.45454H29.0515C28.9832 6.6023 28.9087 6.74513 28.8217 6.88057C28.7783 6.94953 28.7317 7.01602 28.6851 7.08497C28.6354 7.15146 28.5857 7.21795 28.536 7.28198C28.3 7.58242 28.0205 7.85824 27.7131 8.10942L27.6882 8.12912C27.6541 8.15621 27.6199 8.18084 27.5858 8.20547C27.5485 8.23748 27.5081 8.26703 27.4678 8.29412C27.4274 8.32121 27.387 8.35076 27.3466 8.37539C27.3094 8.40494 27.2721 8.42957 27.2317 8.45419C27.1852 8.48621 27.1386 8.51576 27.0889 8.54285C26.9988 8.59949 26.9057 8.65366 26.8094 8.70538H26.8063L26.8032 8.70784C26.7939 8.71277 26.7783 8.72015 26.7659 8.72754C26.6541 8.78665 26.5423 8.84329 26.4274 8.895C26.3125 8.94672 26.1945 8.99597 26.0734 9.0403C26.2504 9.1388 26.4212 9.24223 26.5858 9.34812C26.6541 9.39245 26.7224 9.43924 26.7908 9.48357C26.8591 9.53036 26.9243 9.57715 26.9926 9.6264C27.0578 9.67319 27.1199 9.71998 27.1852 9.76923C27.2255 9.80125 27.269 9.83326 27.3094 9.86528C27.3498 9.89729 27.3932 9.93177 27.4305 9.96378C27.4833 10.0081 27.5361 10.05 27.5858 10.0943C27.769 10.2519 27.9398 10.4144 28.0951 10.5819C28.2317 10.7272 28.359 10.8774 28.477 11.0301C28.5112 11.0744 28.5422 11.1163 28.5733 11.1606H28.5764C28.6261 11.232 28.6758 11.301 28.7224 11.3724C28.7565 11.4266 28.7907 11.4783 28.8217 11.5325C28.8404 11.562 28.859 11.5916 28.8745 11.6211C28.9491 11.7492 29.0143 11.8772 29.0764 12.0078C29.0795 12.0127 29.0795 12.0176 29.0826 12.0225C29.1136 12.0964 29.1447 12.1728 29.1758 12.2466C29.2006 12.3107 29.2223 12.3722 29.2441 12.4363C29.3 12.5988 29.3435 12.7662 29.3745 12.9337C29.4087 13.0987 29.4304 13.2612 29.4366 13.4287V13.4336Z" fill="#D4A767"/>
<path d="M24.6231 18.6741L24.6169 18.6692C24.6014 18.6568 24.589 18.6445 24.5766 18.6322C24.5362 18.5953 24.5082 18.5583 24.4803 18.5214L24.4679 18.5042L24.3592 18.3835H24.3561L24.2256 18.2357L24.2194 18.2283L22.6884 16.4996L21.9493 15.6697L19.0054 12.3501L17.9713 11.1828L17.9619 11.1754H17.9713L17.9619 11.1631C17.9619 11.1631 17.8253 11.1582 17.9526 11.1508C18.3129 11.136 18.6638 11.0966 19.0054 11.035C20.6978 10.7395 22.1481 9.93423 23.089 8.83344C23.1232 8.79157 23.1574 8.74971 23.1884 8.70784C23.2723 8.60687 23.3499 8.50344 23.4213 8.39755C23.4741 8.32121 23.5238 8.24487 23.5704 8.16853C23.5983 8.11927 23.6294 8.07002 23.6573 8.01831C23.6822 7.97398 23.707 7.92719 23.7288 7.88286C23.7971 7.74988 23.8592 7.61444 23.9151 7.47653C23.9399 7.40758 23.9679 7.33862 23.9896 7.26967C24.0145 7.19825 24.0362 7.12684 24.0548 7.05542C24.0828 6.96184 24.1045 6.86826 24.1263 6.77222C24.148 6.67618 24.1635 6.58013 24.1791 6.48409C24.207 6.28954 24.2194 6.09007 24.2194 5.8906C24.2194 5.12472 24.0145 4.39825 23.6449 3.74073C23.6356 3.72595 23.6263 3.70871 23.617 3.69394C23.3996 3.31223 23.1263 2.96008 22.8064 2.63747C22.7568 2.58329 22.7009 2.52912 22.645 2.4774C22.6232 2.4577 22.6015 2.44046 22.5829 2.42076C22.5704 2.41091 22.5611 2.40106 22.5518 2.39367C22.527 2.36905 22.499 2.34688 22.4742 2.32472C22.4493 2.30256 22.4245 2.28285 22.3965 2.26069C22.3034 2.18189 22.2133 2.10801 22.1139 2.03413C22.0705 2.00212 22.0301 1.97256 21.9835 1.94055C21.9462 1.91346 21.909 1.88637 21.8686 1.85928C21.8562 1.84943 21.8407 1.83958 21.8282 1.83219C21.822 1.82973 21.8189 1.82481 21.8127 1.82234C21.7692 1.79279 21.7257 1.76324 21.6823 1.73861C21.673 1.73369 21.6636 1.7263 21.6543 1.72138C21.6481 1.71645 21.6419 1.71153 21.6357 1.70906H21.6326C21.5922 1.68197 21.5518 1.65735 21.5115 1.63518C21.4928 1.62287 21.4711 1.61302 21.4525 1.60071C21.3904 1.56377 21.3251 1.52929 21.2599 1.49481C21.2444 1.48743 21.232 1.48004 21.2165 1.47265C21.1574 1.44064 21.0953 1.41109 21.0301 1.37907C20.968 1.34952 20.9028 1.31997 20.8407 1.29042C20.8003 1.27318 20.76 1.25348 20.7196 1.23378C20.6699 1.21408 20.6202 1.19191 20.5736 1.17221C20.5705 1.17221 20.5674 1.16975 20.5643 1.16975C20.5084 1.14758 20.4525 1.12542 20.3935 1.10326C20.3407 1.08356 20.2879 1.06386 20.2351 1.04662C20.1917 1.02938 20.1451 1.0146 20.0985 0.999827C20.0985 0.999827 20.0954 0.997364 20.0923 0.997364C20.0457 0.982589 19.9991 0.967813 19.9494 0.953037C19.9277 0.945649 19.9091 0.938261 19.8873 0.933336C19.8221 0.913635 19.76 0.896397 19.6948 0.879158C19.642 0.864383 19.5861 0.85207 19.5333 0.839756C19.5022 0.829906 19.4712 0.822518 19.4401 0.81513C19.2973 0.783116 19.1513 0.751102 19.0054 0.726476C18.9029 0.706775 18.8004 0.691999 18.6948 0.677223C18.5923 0.662447 18.4868 0.650134 18.3812 0.640284C18.3004 0.630433 18.2166 0.625508 18.1327 0.61812C18.0799 0.613195 18.0272 0.610732 17.9744 0.610732C17.9247 0.605807 17.875 0.605807 17.8253 0.603344C17.7477 0.603344 17.6669 0.598419 17.5862 0.598419H1.77319V18.381H4.95629C5.09914 18.3761 5.23888 18.3564 5.37242 18.3244C5.51837 18.2899 5.65501 18.2357 5.78234 18.1692C5.86308 18.1249 5.94072 18.0757 6.01214 18.019C6.0463 17.9895 6.08046 17.9599 6.11152 17.9304C6.26368 17.7851 6.37548 17.6127 6.42827 17.4231C6.43759 17.3935 6.4438 17.3615 6.45001 17.332C6.45933 17.2926 6.46554 17.2532 6.46554 17.2113C6.46864 17.2014 6.46864 17.1891 6.46864 17.1768V13.7808L6.47175 11.1606H12.3876L12.4063 11.1828L16.3844 15.6697L17.1204 16.4996L17.7414 17.199L18.6358 18.2086C18.6793 18.2604 18.7135 18.317 18.729 18.381C18.7383 18.4155 18.7414 18.45 18.7414 18.4869C18.7414 18.7603 18.4619 18.9844 18.1172 18.9844H24.3871C24.4617 18.977 24.5331 18.9671 24.6045 18.9548C24.6821 18.9425 24.7598 18.9302 24.8374 18.9154L24.6231 18.6741ZM17.3626 8.40001C17.3408 8.40986 17.3191 8.41972 17.2943 8.4271C17.2508 8.4468 17.2073 8.46404 17.1638 8.47882C17.1359 8.49113 17.1048 8.50098 17.0738 8.51083C16.962 8.54777 16.8471 8.58225 16.726 8.60934C16.6949 8.61673 16.6639 8.62165 16.6328 8.62904C16.5831 8.63889 16.5334 8.64874 16.4806 8.65613C16.4372 8.66352 16.3937 8.6709 16.3471 8.67583C16.285 8.68322 16.2229 8.6906 16.1608 8.69553C16.0862 8.70292 16.0117 8.70538 15.9341 8.70538C15.9248 8.70784 15.9154 8.70784 15.9061 8.70784C15.8844 8.71031 15.8626 8.7103 15.8409 8.7103H15.7757L6.47175 8.70784V3.69148H15.844C16.0521 3.69148 16.257 3.70871 16.4558 3.74073C16.6359 3.76535 16.8098 3.80722 16.9744 3.85893C17.198 3.92296 17.4061 4.00915 17.5986 4.11505C17.6359 4.13475 17.67 4.15445 17.7042 4.17415C17.7166 4.18154 17.729 4.18893 17.7414 4.19631C17.7508 4.20124 17.757 4.20616 17.7632 4.21109C17.8284 4.24557 17.8874 4.28497 17.9495 4.33176C18.0862 4.42288 18.2104 4.52877 18.3191 4.64205H18.3222V4.64697H18.3253C18.3253 4.64697 18.3284 4.6519 18.3315 4.65436C18.3843 4.70608 18.4309 4.76025 18.4774 4.81443C18.5116 4.8563 18.5427 4.8957 18.5737 4.93756C18.6048 4.97943 18.6327 5.02129 18.6607 5.06316C18.6917 5.10748 18.7166 5.14935 18.7383 5.19368C18.7662 5.238 18.788 5.28233 18.8066 5.32912C18.8097 5.33158 18.8128 5.33405 18.8128 5.33897C18.8315 5.38084 18.8501 5.4227 18.8656 5.46703C18.8843 5.51136 18.8998 5.55815 18.9153 5.60494C18.9246 5.63449 18.9339 5.6665 18.9402 5.70098C18.9526 5.74038 18.9619 5.77978 18.9681 5.81918C18.9836 5.89552 18.9929 5.97187 18.9992 6.05067C19.0023 6.09992 19.0054 6.15164 19.0054 6.20089V6.21813C19.0023 6.68356 18.8377 7.11945 18.552 7.49377C18.524 7.53071 18.4961 7.56272 18.4681 7.5972C18.3532 7.73511 18.2228 7.86316 18.0737 7.97891C18.0209 8.01831 17.9681 8.05771 17.9154 8.09465C17.8688 8.12666 17.8222 8.15868 17.7725 8.18823C17.6918 8.23748 17.6079 8.28181 17.521 8.32614C17.4682 8.35322 17.4154 8.37785 17.3626 8.40001Z" fill="white"/>
<path d="M18.7414 18.4869C18.7414 18.7603 18.4619 18.9844 18.1172 18.9844H1.77319V18.3835H4.96871C4.99045 18.3835 5.01529 18.3835 5.03703 18.381C5.72023 18.3589 6.28542 17.9895 6.47175 17.4896C6.47175 17.4846 6.47175 17.4797 6.47796 17.4748C6.48107 17.4723 6.48107 17.4699 6.48107 17.4649C6.51833 17.3615 6.53386 17.2532 6.53386 17.1423V11.1631H12.3876L12.4063 11.1828L16.3844 15.6697L17.1204 16.4996L17.7414 17.199L18.6358 18.2087C18.6793 18.2604 18.7135 18.317 18.729 18.381C18.7383 18.4155 18.7414 18.45 18.7414 18.4869Z" fill="#D4A767"/>
<path d="M19.0054 6.20089V6.21813C19.0023 6.68357 18.8378 7.11945 18.5521 7.49377C18.5241 7.53071 18.4962 7.56272 18.4682 7.5972C18.3533 7.73511 18.2229 7.86316 18.0738 7.97891C18.021 8.01831 17.9682 8.05771 17.9154 8.09465C17.8688 8.12666 17.8223 8.15868 17.7726 8.18823C17.6918 8.23748 17.608 8.28181 17.521 8.32614C17.4682 8.35323 17.4155 8.37785 17.3627 8.40002C17.3409 8.40987 17.3192 8.41972 17.2943 8.4271C17.2509 8.44681 17.2074 8.46404 17.1639 8.47882C17.136 8.49113 17.1049 8.50098 17.0739 8.51083C16.9621 8.54777 16.8472 8.58225 16.726 8.60934C16.695 8.61673 16.6639 8.62165 16.6329 8.62904C16.5832 8.63889 16.5335 8.64874 16.4807 8.65613C16.4372 8.66352 16.3938 8.6709 16.3472 8.67583C16.2851 8.68322 16.223 8.69061 16.1608 8.69553C16.0863 8.70292 16.0118 8.70538 15.9342 8.70538C15.9248 8.70784 15.9155 8.70784 15.9062 8.70784H6.53394V3.69394H15.841C16.0491 3.69394 16.2571 3.71118 16.4559 3.74073C16.6329 3.77028 16.8068 3.80968 16.9745 3.85894C17.195 3.92789 17.403 4.01408 17.5987 4.11505C17.6484 4.14214 17.6949 4.16923 17.7415 4.19631C18.0272 4.3687 18.2788 4.57802 18.4775 4.81443C18.5117 4.8563 18.5427 4.8957 18.5738 4.93756C18.6048 4.97943 18.6328 5.02129 18.6607 5.06316C18.6887 5.10502 18.7135 5.14935 18.7384 5.19368C18.7632 5.23801 18.785 5.28233 18.8067 5.32912C18.8098 5.33158 18.8129 5.33405 18.8129 5.33897C18.8315 5.38084 18.8502 5.4227 18.8657 5.46703C18.8843 5.51136 18.8999 5.55815 18.9154 5.60494C18.9247 5.63449 18.934 5.6665 18.9402 5.70098C18.9527 5.74038 18.962 5.77978 18.9682 5.81918C18.9837 5.89553 18.993 5.97187 18.9992 6.05067C19.0023 6.09992 19.0054 6.15164 19.0054 6.20089Z" fill="#D4A767"/>
</svg>
